<?xml version="1.0" encoding="UTF-8" standalone="no"?>
<!-- Created with Inkscape (http://www.inkscape.org/) -->

<svg
   width="600"
   height="372"
   viewBox="0 0 158.75 98.424999"
   version="1.1"
   id="svg1"
   inkscape:version="1.4 (86a8ad7, 2024-10-11)"
   sodipodi:docname="cover.svg"
   inkscape:export-filename="cover.png"
   inkscape:export-xdpi="96"
   inkscape:export-ydpi="96"
   xmlns:inkscape="http://www.inkscape.org/namespaces/inkscape"
   xmlns:sodipodi="http://sodipodi.sourceforge.net/DTD/sodipodi-0.dtd"
   xmlns="http://www.w3.org/2000/svg"
   xmlns:svg="http://www.w3.org/2000/svg">
  <sodipodi:namedview
     id="namedview1"
     pagecolor="#ffffff"
     bordercolor="#000000"
     borderopacity="0.25"
     inkscape:showpageshadow="2"
     inkscape:pageopacity="0.0"
     inkscape:pagecheckerboard="0"
     inkscape:deskcolor="#d1d1d1"
     inkscape:document-units="mm"
     inkscape:zoom="1.6311518"
     inkscape:cx="396.95876"
     inkscape:cy="168.89906"
     inkscape:window-width="3840"
     inkscape:window-height="2066"
     inkscape:window-x="-11"
     inkscape:window-y="-11"
     inkscape:window-maximized="1"
     inkscape:current-layer="layer1" />
  <defs
     id="defs1" />
  <g
     inkscape:label="图层 1"
     inkscape:groupmode="layer"
     id="layer1">
    <rect
       style="fill:#ff8c1a;stroke-width:0.58074;fill-opacity:1"
       id="rect1"
       width="158.75"
       height="98.425003"
       x="-2.1316282e-14"
       y="-1.5258789e-06" />
    <path
       style="font-size:25.3811px;font-family:'Maple Mono';-inkscape-font-specification:'Maple Mono';text-align:center;text-anchor:middle;fill:#ffffff;stroke-width:0.211509"
       d="m 25.122863,39.94841 h -3.93407 q -0.507622,0 -0.837576,-0.304573 -0.304574,-0.329954 -0.304574,-0.837576 0,-0.507622 0.304574,-0.812195 0.329954,-0.329955 0.837576,-0.329955 h 10.15244 q 0.507622,0 0.812195,0.329955 0.329954,0.304573 0.329954,0.812195 0,0.507622 -0.329954,0.837576 -0.304573,0.304573 -0.812195,0.304573 h -3.934071 v 15.355566 q 0,0.583765 -0.279192,0.862957 -0.279192,0.279192 -0.862957,0.279192 -0.583765,0 -0.862957,-0.279192 -0.279193,-0.279192 -0.279193,-0.862957 z m 20.406414,12.893599 q 0.482241,0 0.786814,0.355335 0.329954,0.329955 0.329954,0.761433 0,0.22843 -0.126905,0.45686 -0.101525,0.203049 -0.406098,0.507622 -0.406097,0.380717 -0.862957,0.659909 -0.45686,0.279192 -0.989863,0.482241 -0.507622,0.203048 -1.091387,0.279192 -0.558385,0.101524 -1.192912,0.101524 -1.472104,0 -2.639634,-0.482241 -1.14215,-0.507622 -1.954345,-1.421341 -0.786814,-0.939101 -1.218293,-2.258918 -0.431479,-1.345198 -0.431479,-2.99497 0,-1.446723 0.304574,-2.76654 0.329954,-1.345198 1.015244,-2.335061 0.71067,-1.015244 1.827439,-1.599009 1.116768,-0.609147 2.741159,-0.609147 1.522866,0 2.53811,0.533003 1.015244,0.507622 1.62439,1.446723 0.634527,0.939101 0.888338,2.208156 0.279193,1.243674 0.279193,2.741159 0,0.456859 -0.329955,0.837576 -0.329954,0.355335 -0.862957,0.355335 h -7.690473 q 0.101524,1.015244 0.431478,1.802058 0.329955,0.761433 0.837577,1.269055 0.507622,0.482241 1.16753,0.736052 0.68529,0.253811 1.497485,0.253811 1.14215,0 1.802058,-0.355335 0.68529,-0.355336 1.066006,-0.659909 0.203049,-0.177668 0.329955,-0.22843 0.126905,-0.07614 0.329954,-0.07614 z m -7.462043,-4.771647 h 6.192988 q 0.126905,0 0.253811,-0.152286 0.152287,-0.152287 0.152287,-0.68529 0,-0.533003 -0.203049,-1.066006 -0.203049,-0.533003 -0.609147,-0.939101 -0.380716,-0.431479 -0.964481,-0.68529 -0.558385,-0.279192 -1.269055,-0.279192 -0.786815,0 -1.421342,0.279192 -0.609146,0.279192 -1.066006,0.786814 -0.431479,0.507622 -0.710671,1.218293 -0.253811,0.68529 -0.355335,1.522866 z m 13.655041,8.121952 q -0.507622,0 -0.862958,-0.253811 -0.355335,-0.253811 -0.355335,-0.812195 V 42.994142 q 0,-0.482241 0.329954,-0.736052 0.329954,-0.279192 0.812195,-0.279192 0.507622,0 0.812196,0.279192 0.329954,0.253811 0.329954,0.736052 v 0.888339 q 0.279192,-0.888339 0.761433,-1.395961 0.482241,-0.507622 1.522866,-0.507622 1.091387,0 1.700533,0.583766 0.634528,0.558384 0.761433,1.319817 0.203049,-0.812195 0.837577,-1.345198 0.634527,-0.558385 1.776677,-0.558385 0.786814,0 1.319817,0.279192 0.533003,0.279193 0.862957,0.786815 0.329955,0.48224 0.45686,1.142149 0.152287,0.634527 0.152287,1.39596 v 9.543294 q 0,0.558384 -0.355336,0.812195 -0.329954,0.253811 -0.837576,0.253811 -0.507622,0 -0.862957,-0.253811 -0.329955,-0.253811 -0.329955,-0.812195 v -9.314864 q 0,-0.685289 -0.304573,-1.243674 -0.279192,-0.583765 -1.091387,-0.583765 -0.786814,0 -1.091387,0.558384 -0.279193,0.558385 -0.279193,1.243674 v 9.46715 q 0,0.507622 -0.304573,0.736052 -0.304573,0.203049 -0.761433,0.203049 -0.45686,0 -0.761433,-0.203049 -0.304573,-0.22843 -0.304573,-0.736052 v -9.441769 q 0,-0.659908 -0.279192,-1.243674 -0.279192,-0.583765 -1.091387,-0.583765 -0.786814,0 -1.091388,0.558384 -0.304573,0.533003 -0.304573,1.243674 v 9.340245 q 0,0.558384 -0.329954,0.812195 -0.329954,0.253811 -0.837576,0.253811 z M 67.76314,41.978898 q 0.583765,0 0.862957,0.304574 0.279192,0.279192 0.279192,0.862957 v 1.62439 q 0.22843,-0.634527 0.558385,-1.142149 0.355335,-0.507622 0.812195,-0.862958 0.45686,-0.380716 1.040625,-0.583765 0.583765,-0.203049 1.319817,-0.203049 1.548247,0 2.512729,0.609147 0.964482,0.609146 1.497485,1.599009 0.533003,0.964482 0.710671,2.157393 0.177667,1.192912 0.177667,2.385824 0,1.370579 -0.203048,2.741159 -0.203049,1.370579 -0.761433,2.487347 -0.558385,1.091388 -1.573629,1.802058 -1.015244,0.68529 -2.614253,0.68529 -1.39596,0 -2.335061,-0.736052 -0.91372,-0.761433 -1.14215,-1.903582 v 6.066083 q 0,0.583765 -0.279192,0.862957 -0.279192,0.279192 -0.862957,0.279192 -0.583765,0 -0.862957,-0.279192 Q 66.62099,60.456339 66.62099,59.872574 V 43.146429 q 0,-0.583765 0.279193,-0.862957 0.279192,-0.304574 0.862957,-0.304574 z m 4.644741,2.284299 q -0.68529,0 -1.319817,0.279192 -0.634528,0.279192 -1.116768,0.736052 -0.482241,0.431479 -0.786814,1.015244 -0.279193,0.558384 -0.279193,1.167531 v 2.791921 q 0,0.609146 0.22843,1.294436 0.22843,0.68529 0.634528,1.269055 0.406097,0.583765 0.964482,0.964482 0.583765,0.380716 1.269055,0.380716 1.091387,0 1.725914,-0.45686 0.634528,-0.456859 0.964482,-1.192911 0.355336,-0.761433 0.45686,-1.700534 0.101524,-0.964482 0.101524,-1.928964 0,-0.989862 -0.126905,-1.827439 -0.126906,-0.862957 -0.45686,-1.472104 -0.304573,-0.634527 -0.862957,-0.964481 -0.558385,-0.355336 -1.395961,-0.355336 z M 100.80935,55.227832 96.418422,38.730118 q -0.126905,-0.507622 0.05076,-0.91372 0.177668,-0.406098 0.91372,-0.406098 0.507622,0 0.837576,0.22843 0.355336,0.22843 0.482241,0.659909 l 3.324929,13.198172 q 0.15228,0.583765 0.38071,0.583765 0.22843,0 0.38072,-0.583765 L 106.114,38.298639 q 0.12691,-0.431479 0.45686,-0.659909 0.35534,-0.22843 0.86296,-0.22843 0.73605,0 0.91372,0.406098 0.17767,0.406098 0.0508,0.91372 l -4.39093,16.497714 q -0.17767,0.609147 -0.55838,0.91372 -0.38072,0.304573 -1.04063,0.304573 -0.63453,0 -1.04062,-0.304573 -0.38072,-0.304573 -0.55839,-0.91372 z m 15.35558,1.218293 q -0.91372,0 -1.72592,-0.304573 -0.78681,-0.304573 -1.37058,-0.989863 -0.58376,-0.710671 -0.9391,-1.827439 -0.32995,-1.14215 -0.32995,-2.817302 0,-1.751296 0.35533,-3.299543 0.35534,-1.573628 1.06601,-2.715778 0.73605,-1.16753 1.82744,-1.827439 1.11677,-0.68529 2.58887,-0.68529 1.21829,0 1.90358,0.609147 0.55839,0.507622 0.88834,1.243674 0.0508,-0.380717 0.10153,-0.736052 0.10152,-0.634528 0.43147,-0.862958 0.32996,-0.253811 0.86296,-0.253811 0.60915,0 0.83758,0.279192 0.25381,0.253811 0.15228,0.837577 -0.25381,1.497485 -0.38071,2.969588 -0.12691,1.446723 -0.10153,2.944208 0.0508,1.472104 0.25381,3.045732 0.22843,1.548247 0.63453,3.274162 0.12691,0.558384 -0.0761,0.837576 -0.20305,0.279192 -0.78682,0.279192 -0.58376,0 -0.9391,-0.279192 -0.35533,-0.279192 -0.48224,-0.837576 -0.30457,-1.243674 -0.50762,-2.411205 -0.15229,0.45686 -0.35533,0.888339 -0.55839,1.16753 -1.52287,1.903582 -0.9391,0.736052 -2.38582,0.736052 z m 0.22843,-2.284299 q 0.78681,0 1.44672,-0.406097 0.68529,-0.431479 1.16753,-1.192912 0.48224,-0.761433 0.76143,-1.827439 0.27919,-1.066006 0.27919,-2.360443 0,-0.609146 -0.0508,-1.319817 -0.0254,-0.736052 -0.22843,-1.345198 -0.20305,-0.609146 -0.65991,-1.015244 -0.43148,-0.431479 -1.26905,-0.431479 -0.78682,0 -1.47211,0.507622 -0.68528,0.482241 -1.19291,1.345199 -0.50762,0.862957 -0.81219,2.055869 -0.27919,1.192911 -0.27919,2.563491 0,1.62439 0.55838,2.53811 0.58377,0.888338 1.7513,0.888338 z m 12.79208,2.284299 q -0.58377,0 -0.86296,-0.279192 -0.27919,-0.279192 -0.27919,-0.862957 V 43.121048 q 0,-0.583765 0.27919,-0.862958 0.27919,-0.279192 0.86296,-0.279192 0.58376,0 0.86296,0.279192 0.27919,0.279193 0.27919,0.862958 v 1.497485 q 0.43148,-1.218293 1.59901,-1.928964 1.19291,-0.710671 3.07111,-0.710671 1.14215,0 1.85282,0.406098 0.73605,0.406098 1.14215,1.091387 0.4061,0.68529 0.55838,1.599009 0.15229,0.91372 0.15229,1.928964 v 0.304573 q 0,0.583766 -0.27919,0.862958 -0.27919,0.279192 -0.86296,0.279192 -0.58376,0 -0.86296,-0.279192 -0.27919,-0.279192 -0.27919,-0.862958 v -0.304573 q 0,-0.583765 -0.0761,-1.116768 -0.0761,-0.558385 -0.30457,-0.989863 -0.22843,-0.431479 -0.65991,-0.68529 -0.43148,-0.253811 -1.16753,-0.253811 -0.65991,0 -1.3452,0.22843 -0.68529,0.22843 -1.26906,0.659909 -0.55838,0.431478 -0.91372,1.066006 -0.35533,0.609146 -0.35533,1.39596 v 7.995047 q 0,0.583765 -0.27919,0.862957 -0.2792,0.279192 -0.86296,0.279192 z"
       id="text1"
       aria-label="Temp Var" />
  </g>
</svg>
