<?xml version="1.0" encoding="UTF-8" standalone="no"?>
<!-- Created with Inkscape (http://www.inkscape.org/) -->

<svg
   width="30"
   height="30"
   viewBox="0 0 7.177844 7.177844"
   version="1.1"
   id="svg1"
   xmlns="http://www.w3.org/2000/svg"
   xmlns:svg="http://www.w3.org/2000/svg">
  <defs
     id="defs1" />
  <g
     id="layer1">
    <g
       id="text1"
       style="font-size:2.54271px;line-height:0.9;font-family:'HarmonyOS Sans';-inkscape-font-specification:'HarmonyOS Sans';fill:#333333;stroke-width:0.238377"
       aria-label="temp&#10;var">
      <path
         style="font-weight:bold;font-family:'Maple Mono';-inkscape-font-specification:'Maple Mono Bold';text-align:center;text-anchor:middle;fill:#ffffff"
         d="m 1.7708829,1.9513499 q 0.076281,0 0.1144219,0.040683 0.038141,0.038141 0.038141,0.114422 0,0.073739 -0.038141,0.1144219 -0.038141,0.040683 -0.1144219,0.040683 H 1.3691347 v 0.3864919 q 0,0.1907033 0.045769,0.2796981 0.045769,0.086452 0.1347636,0.086452 0.040683,0 0.078824,-0.00509 0.040683,-0.00763 0.081367,-0.025427 0.073739,-0.033055 0.1220501,-0.012713 0.050854,0.017799 0.083909,0.078824 0.040683,0.068653 0.022884,0.1220501 -0.015256,0.053397 -0.073739,0.083909 -0.086452,0.043226 -0.1779897,0.05594 -0.091538,0.012714 -0.193246,0.012714 -0.1118793,0 -0.1983314,-0.035598 Q 1.2114867,3.2506747 1.1530043,3.1743934 1.094522,3.0955694 1.0640095,2.976062 1.033497,2.8540119 1.033497,2.6887358 V 2.2615605 H 0.79956764 q -0.0762813,0 -0.11442195,-0.038141 -0.0355979,-0.040683 -0.0355979,-0.1144219 0,-0.078824 0.0381407,-0.1169647 0.0381407,-0.040683 0.11696467,-0.040683 H 1.033497 V 1.6741945 q 0,-0.08391 0.040683,-0.1245928 0.040683,-0.043226 0.1271355,-0.043226 0.086452,0 0.1271355,0.043226 0.040683,0.040683 0.040683,0.1245928 v 0.2771554 z m 1.4900291,0.93826 q 0.063568,0 0.099166,0.050854 0.038141,0.048312 0.038141,0.1118792 0,0.035598 -0.015256,0.066111 -0.015256,0.030512 -0.058482,0.068653 -0.038141,0.033055 -0.083909,0.058482 -0.045769,0.025427 -0.1017084,0.043226 -0.05594,0.017799 -0.1220501,0.025427 -0.063568,0.010171 -0.1398491,0.010171 -0.1551053,0 -0.2720699,-0.053397 Q 2.4904725,3.2150761 2.4116485,3.1209962 2.3353675,3.0243732 2.2946838,2.894695 2.2565428,2.7624741 2.2565428,2.6099115 q 0,-0.1398491 0.033055,-0.27207 0.033055,-0.1347636 0.1067938,-0.236472 0.073739,-0.1042512 0.1907033,-0.1652762 0.1195074,-0.061025 0.2898689,-0.061025 0.1551054,0 0.2593565,0.05594 0.1067938,0.05594 0.1729043,0.1500199 0.06611,0.09408 0.09408,0.218673 0.030513,0.1220501 0.030513,0.254271 0,0.073739 -0.038141,0.114422 -0.035598,0.038141 -0.1067938,0.038141 H 2.5743802 q 0.015256,0.083909 0.045769,0.1423917 0.030513,0.058482 0.071196,0.096623 0.043226,0.035598 0.09408,0.053397 0.050854,0.015256 0.1067938,0.015256 0.091538,0 0.1652762,-0.02797 0.076281,-0.030513 0.1093365,-0.058482 0.025427,-0.020342 0.045769,-0.02797 0.022884,-0.010171 0.048311,-0.010171 z M 2.576923,2.449721 h 0.5288837 q 0.015256,0 0.022884,-0.010171 0.010171,-0.010171 0.010171,-0.040683 0,-0.040683 -0.017799,-0.078824 Q 3.1058067,2.281902 3.0702087,2.25139 3.0371537,2.220878 2.9888417,2.203079 2.9405297,2.18528 2.8769624,2.18528 q -0.063568,0 -0.1144219,0.020342 -0.048312,0.017799 -0.086452,0.053397 -0.038141,0.033055 -0.063568,0.081367 -0.022884,0.048312 -0.035598,0.1093365 z m 1.2993258,0.8670642 q -0.073739,0 -0.1169647,-0.035598 -0.040683,-0.035598 -0.040683,-0.1093365 V 2.0149176 q 0,-0.071196 0.043226,-0.1042511 0.045769,-0.035598 0.1093366,-0.035598 0.071196,0 0.1118792,0.038141 0.043226,0.035598 0.043226,0.1017084 v 0.061025 q 0.022884,-0.09408 0.078824,-0.1474772 0.05594,-0.053397 0.1627334,-0.053397 0.1118793,0 0.1678189,0.061025 0.058482,0.061025 0.071196,0.1398491 0.017799,-0.081367 0.078824,-0.1398491 0.061025,-0.061025 0.1779897,-0.061025 0.068653,0 0.1195074,0.022884 0.053397,0.022884 0.086452,0.06611 0.033055,0.040683 0.048311,0.1017084 0.017799,0.058482 0.017799,0.1322209 V 3.17185 q 0,0.073739 -0.040683,0.1093365 -0.040683,0.035598 -0.1118792,0.035598 -0.071196,0 -0.114422,-0.035598 Q 4.7255139,3.2455893 4.7255139,3.169308 V 2.2869876 q 0,-0.050854 -0.022884,-0.088995 -0.022884,-0.040683 -0.076281,-0.040683 -0.050854,0 -0.073739,0.038141 -0.020342,0.038141 -0.020342,0.091538 v 0.8975766 q 0,0.068653 -0.043226,0.1017084 -0.043226,0.030513 -0.1093365,0.030513 -0.06611,0 -0.1093366,-0.030513 -0.043226,-0.033055 -0.043226,-0.1017084 V 2.2869876 q 0,-0.050854 -0.022884,-0.088995 -0.020342,-0.040683 -0.076281,-0.040683 -0.050854,0 -0.076281,0.038141 -0.022884,0.038141 -0.022884,0.091538 V 3.169308 q 0,0.076281 -0.040683,0.1118792 -0.040683,0.035598 -0.1118792,0.035598 z M 5.4832424,1.8750686 q 0.083909,0 0.1271355,0.040683 0.043226,0.040683 0.043226,0.1245928 v 0.1296782 q 0.020342,-0.061025 0.050854,-0.1144219 0.033055,-0.05594 0.078824,-0.09408 0.045769,-0.040683 0.1093365,-0.063568 0.063568,-0.022884 0.1500199,-0.022884 0.1449345,0 0.2390148,0.05594 0.096623,0.05594 0.1500199,0.1525626 0.053397,0.09408 0.073739,0.2237585 0.022884,0.1296782 0.022884,0.2771554 0,0.1271355 -0.025427,0.2593564 -0.022884,0.1322209 -0.083909,0.2390147 -0.058482,0.1067939 -0.1652762,0.175447 -0.1042511,0.06611 -0.2695272,0.06611 -0.1271355,0 -0.2186731,-0.068653 Q 5.6739457,3.1845642 5.653604,3.0650569 v 0.5492253 q 0,0.08391 -0.040683,0.1245928 -0.040683,0.043226 -0.1271355,0.043226 -0.086452,0 -0.1271355,-0.043226 Q 5.317967,3.698192 5.317967,3.6142822 V 2.0403447 q 0,-0.083909 0.038141,-0.1245928 0.040683,-0.040683 0.1271355,-0.040683 z m 0.4653159,0.3102106 q -0.058482,0 -0.1144219,0.025427 -0.053397,0.022884 -0.09408,0.066111 -0.038141,0.043226 -0.063568,0.1042511 -0.022884,0.058482 -0.022884,0.1296782 v 0.1551053 q 0,0.06611 0.017799,0.1296782 0.020342,0.061025 0.05594,0.1118792 0.035598,0.048312 0.086452,0.078824 0.050854,0.02797 0.1118793,0.02797 0.086452,0 0.1373063,-0.038141 0.053397,-0.038141 0.081367,-0.099166 0.02797,-0.063568 0.035598,-0.139849 0.010171,-0.076281 0.010171,-0.1500199 0,-0.073739 -0.010171,-0.1449345 Q 6.172316,2.3683538 6.144348,2.3124146 6.118921,2.2539326 6.070609,2.2208766 6.022297,2.1852786 5.9485583,2.1852792 Z"
         id="path4" />
      <path
         style="font-weight:bold;font-family:'Maple Mono';-inkscape-font-specification:'Maple Mono Bold';text-align:center;text-anchor:middle;fill:#ffffff"
         d="M 1.8751345,5.5061924 1.4835571,4.4001135 q -0.012714,-0.040683 -0.00509,-0.073739 0.00763,-0.033055 0.02797,-0.05594 0.022884,-0.022884 0.05594,-0.035598 0.033055,-0.012714 0.068653,-0.012714 0.05594,0 0.096623,0.033055 0.040683,0.030512 0.061025,0.086452 l 0.2568138,0.7551849 q 0.015256,0.043226 0.045769,0.043226 0.030513,0 0.045769,-0.043226 L 2.3938473,4.3416312 q 0.020342,-0.05594 0.061025,-0.086452 0.040683,-0.033055 0.096623,-0.033055 0.035598,0 0.068653,0.012714 0.033055,0.012714 0.053397,0.035598 0.022884,0.022884 0.030513,0.05594 0.00763,0.033055 -0.00509,0.073739 L 2.3073952,5.5061924 q -0.030513,0.081367 -0.081367,0.1245928 -0.048312,0.040683 -0.1347637,0.040683 -0.086452,0 -0.1373063,-0.040683 Q 1.905647,5.5875592 1.8751345,5.5061924 Z M 3.449073,5.6714686 q -0.091538,0 -0.1779897,-0.033055 Q 3.1871739,5.6028154 3.1210634,5.5290768 3.0574956,5.4553382 3.0168123,5.3383736 2.9786716,5.2188662 2.9786716,5.0510473 q 0,-0.1703615 0.035598,-0.3229242 0.038141,-0.1525626 0.1118792,-0.2644418 0.073739,-0.1118792 0.1830751,-0.175447 0.1093366,-0.06611 0.254271,-0.06611 0.1195074,0 0.193246,0.058482 0.058482,0.045769 0.096623,0.1118792 0.00254,-0.010171 0.00254,-0.020342 0.012714,-0.076281 0.058482,-0.1118792 0.048312,-0.038141 0.1245928,-0.038141 0.078824,0 0.1093366,0.038141 0.030513,0.035598 0.020342,0.1118792 -0.020342,0.1398491 -0.033055,0.2771554 -0.012714,0.1373064 -0.012714,0.2771554 0.00254,0.1373064 0.017799,0.2847836 0.015256,0.1474771 0.050854,0.3127533 0.017799,0.076281 -0.00763,0.1118792 -0.022884,0.035598 -0.1017084,0.035598 -0.078824,0 -0.1322209,-0.035598 Q 3.896585,5.6002724 3.881329,5.5239912 3.866073,5.4578812 3.855902,5.394313 3.843189,5.41974 3.827932,5.445167 3.76945,5.5519608 3.6753694,5.6129859 3.5812894,5.6714679 3.4490682,5.6714679 Z M 3.5126407,5.361258 q 0.05594,0 0.1093366,-0.02797 0.05594,-0.030512 0.096623,-0.088995 0.043226,-0.061025 0.068653,-0.1500199 0.025427,-0.088995 0.025427,-0.2085022 0,-0.068653 -0.00763,-0.132221 -0.00509,-0.06611 -0.025427,-0.1144219 -0.020342,-0.048312 -0.05594,-0.076281 -0.035598,-0.030512 -0.09408,-0.030512 -0.073739,0 -0.1322209,0.040683 -0.05594,0.040683 -0.099166,0.1118793 -0.040683,0.071196 -0.063568,0.1652761 -0.020342,0.09408 -0.020342,0.2008741 0,0.1398491 0.048312,0.2263012 0.048311,0.083909 0.1500198,0.083909 z m 1.2611852,0.3102106 q -0.086452,0 -0.1271355,-0.040683 -0.038141,-0.043226 -0.038141,-0.1271355 V 4.3874 q 0,-0.083909 0.040683,-0.1245928 0.040683,-0.040683 0.1245928,-0.040683 0.083909,0 0.1220501,0.040683 0.040683,0.040683 0.040683,0.1245928 v 0.1093365 q 0.048311,-0.1296782 0.1627334,-0.2008741 0.114422,-0.073739 0.289869,-0.073739 0.1093365,0 0.1830751,0.038141 0.076281,0.035598 0.1220501,0.1042511 0.048311,0.06611 0.068653,0.1601907 0.020342,0.09408 0.020342,0.2034168 v 0.02797 q 0,0.086452 -0.040683,0.1271355 -0.040683,0.040683 -0.1271356,0.040683 -0.083909,0 -0.1271355,-0.040683 Q 5.4476438,4.8425455 5.4476438,4.756093 V 4.743379 q 0,-0.045769 -0.00509,-0.086452 Q 5.4374638,4.613701 5.4196698,4.583188 5.4044138,4.552675 5.3713588,4.532334 5.3383038,4.511992 5.2849068,4.511992 q -0.05594,0 -0.1169646,0.020342 -0.061025,0.020342 -0.114422,0.058482 -0.050854,0.035598 -0.083909,0.088995 -0.033055,0.053397 -0.033055,0.1144219 V 5.503649 q 0,0.083909 -0.038141,0.1271355 -0.038141,0.040683 -0.1245928,0.040683 z"
         id="path5" />
    </g>
  </g>
</svg>
